<svg width="303" height="145" viewBox="0 0 303 145" fill="none" xmlns="http://www.w3.org/2000/svg">
<path d="M239 58.2019V90.9873C239 93.6854 236.81 95.8747 234.113 95.8747H211.825C210.775 100.63 208.365 104.98 204.802 108.45C200.076 113.05 193.835 115.586 187.231 115.586C180.633 115.586 174.392 113.05 169.666 108.446C166.103 104.981 163.693 100.63 162.642 95.8747H75.0432C73.9971 100.615 71.5828 104.975 68.0198 108.45C63.2888 113.05 57.0472 115.586 50.4491 115.586C43.8462 115.586 37.6047 113.05 32.8737 108.45C29.3158 104.98 26.9062 100.63 25.8554 95.8747H4.88736C2.18928 95.8747 0 93.685 0 90.9873V73.5193C0 66.2709 2.60986 59.2578 7.35065 53.7738C12.0966 48.2852 18.6555 44.6881 25.8302 43.642L55.4289 39.3265L96.6895 18.3444C105.604 13.809 115.604 11.4139 125.604 11.4139H153.517C161.689 11.4139 169.675 12.9534 177.255 15.9936L222.792 34.2435C232.637 38.1926 239 47.5958 239 58.2019ZM229.225 86.1V71.5158H226.991C218.052 71.5158 210.774 64.2385 210.774 55.2942V48.9308H179.846C179.841 48.9308 179.841 48.9308 179.841 48.9308C179.837 48.9308 179.837 48.9308 179.837 48.9308H57.3063L36.7542 51.9267C35.0485 65.3481 23.6213 75.7679 9.77519 75.8953V86.1004H25.6304C27.6783 74.2531 38.0201 65.2061 50.4491 65.2061C62.8733 65.2061 73.2199 74.2531 75.2677 86.1004H162.417C164.465 74.2531 174.807 65.2061 187.231 65.2061C199.66 65.2061 210.002 74.2531 212.05 86.1004H229.225V86.1ZM229.225 61.7406V58.2019C229.225 54.7854 228.154 51.5794 226.283 48.9303H220.549V55.2937C220.549 58.847 223.443 61.7402 226.991 61.7402H229.225V61.7406ZM182.246 39.1551H208.771L173.619 25.0644C172.608 24.6634 171.591 24.2923 170.569 23.9502L182.246 39.1551ZM202.651 90.3959C202.651 81.882 195.75 74.9809 187.236 74.9809C178.723 74.9809 171.816 81.882 171.816 90.3959C171.816 98.9098 178.723 105.811 187.236 105.811C195.75 105.811 202.651 98.9103 202.651 90.3959ZM169.92 39.1551L156.171 21.2521C155.291 21.2082 154.407 21.1886 153.517 21.1886H130.189V39.1551H169.92ZM120.414 39.1551V21.4477C113.708 22.0979 107.125 24.0039 101.118 27.0586L77.3305 39.1551H120.414V39.1551ZM65.8594 90.3959C65.8594 81.882 58.9583 74.9809 50.4444 74.9809C41.9305 74.9809 35.0294 81.882 35.0294 90.3959C35.0294 98.9098 41.9305 105.811 50.4444 105.811C58.9583 105.811 65.8594 98.9103 65.8594 90.3959ZM11.2167 66.0417C18.4796 65.3476 24.4765 60.245 26.4851 53.4466C19.4668 54.7415 13.763 59.6536 11.2167 66.0417Z" fill="#1E0478"/>
<path d="M229.225 71.5154V86.0995H212.05C210.002 74.2522 199.66 65.2052 187.231 65.2052C174.807 65.2052 164.465 74.2522 162.417 86.0995H75.2677C73.2199 74.2522 62.8729 65.2052 50.4491 65.2052C38.0202 65.2052 27.6783 74.2522 25.6304 86.0995H9.77521V75.8944C23.6213 75.7674 35.0485 65.3471 36.7542 51.9258L57.3063 48.9299H179.837C179.837 48.9299 179.837 48.9299 179.841 48.9299C179.841 48.9299 179.841 48.9299 179.846 48.9299H210.774V55.2932C210.774 64.2375 218.052 71.5149 226.991 71.5149L229.225 71.5154ZM140.35 67.5177C140.35 64.815 138.166 62.6304 135.463 62.6304H103.049C100.346 62.6304 98.1618 64.815 98.1618 67.5177C98.1618 70.2158 100.346 72.4051 103.049 72.4051H135.463C138.165 72.4051 140.35 70.2153 140.35 67.5177Z" fill="#9B8CCC"/>
<path d="M229.225 58.2019V61.7407H226.991C223.443 61.7407 220.549 58.8474 220.549 55.2942V48.9308H226.283C228.154 51.5794 229.225 54.7854 229.225 58.2019Z" fill="#94E7EF"/>
<path d="M208.771 39.1552H182.246L170.569 23.9502C171.591 24.2924 172.607 24.6639 173.619 25.0644L208.771 39.1552Z" fill="white"/>
<path d="M187.236 74.9809C195.75 74.9809 202.651 81.882 202.651 90.3959C202.651 98.9098 195.75 105.811 187.236 105.811C178.723 105.811 171.816 98.9098 171.816 90.3959C171.816 81.882 178.722 74.9809 187.236 74.9809ZM193.712 90.3959C193.712 86.8184 190.814 83.9149 187.236 83.9149C183.654 83.9149 180.755 86.8179 180.755 90.3959C180.755 93.9739 183.654 96.8769 187.236 96.8769C190.814 96.8769 193.712 93.9739 193.712 90.3959Z" fill="white"/>
<path d="M187.236 83.9154C190.814 83.9154 193.712 86.8184 193.712 90.3964C193.712 93.9744 190.814 96.8774 187.236 96.8774C183.654 96.8774 180.755 93.9744 180.755 90.3964C180.755 86.8184 183.654 83.9154 187.236 83.9154Z" fill="#1E0478"/>
<path d="M156.171 21.2521L169.92 39.1551H130.189V21.1886H153.517C154.407 21.1886 155.291 21.2082 156.171 21.2521Z" fill="white"/>
<path d="M135.463 62.6299C138.165 62.6299 140.35 64.8145 140.35 67.5172C140.35 70.2153 138.165 72.4046 135.463 72.4046H103.049C100.346 72.4046 98.1613 70.2149 98.1613 67.5172C98.1613 64.8145 100.346 62.6299 103.049 62.6299H135.463Z" fill="#1E0478"/>
<path d="M120.414 21.4477V39.1551H77.3305L101.118 27.0586C107.125 24.0038 113.708 22.0979 120.414 21.4477Z" fill="white"/>
<path d="M50.4439 74.9809C58.9578 74.9809 65.859 81.882 65.859 90.3959C65.859 98.9098 58.9578 105.811 50.4439 105.811C41.93 105.811 35.0289 98.9098 35.0289 90.3959C35.0289 81.882 41.93 74.9809 50.4439 74.9809ZM56.9249 90.3959C56.9249 86.8184 54.0266 83.9149 50.4439 83.9149C46.8664 83.9149 43.9681 86.8179 43.9681 90.3959C43.9681 93.9739 46.8664 96.8769 50.4439 96.8769C54.0266 96.8769 56.9249 93.9739 56.9249 90.3959Z" fill="white"/>
<path d="M50.444 83.9154C54.0266 83.9154 56.925 86.8184 56.925 90.3964C56.925 93.9744 54.0266 96.8774 50.444 96.8774C46.8664 96.8774 43.9681 93.9744 43.9681 90.3964C43.9681 86.8184 46.8664 83.9154 50.444 83.9154Z" fill="#1E0478"/>
<path d="M26.4856 53.4461C24.477 60.2446 18.48 65.3471 11.2171 66.0413C13.763 59.6536 19.4668 54.7415 26.4856 53.4461Z" fill="#94E7EF"/>
<path d="M188.917 141.68C201.69 141.68 212.045 131.325 212.045 118.552C212.045 105.778 201.69 95.4236 188.917 95.4236C176.144 95.4236 165.789 105.778 165.789 118.552C165.789 131.325 176.144 141.68 188.917 141.68Z" fill="#3BFBCD"/>
<path d="M277.083 141.68C289.856 141.68 300.211 131.325 300.211 118.552C300.211 105.778 289.856 95.4236 277.083 95.4236C264.31 95.4236 253.955 105.778 253.955 118.552C253.955 131.325 264.31 141.68 277.083 141.68Z" fill="#3BFBCD"/>
<path d="M225.571 69.4898H205.349C203.731 69.4898 202.419 67.6168 202.419 65.3066C202.419 62.9963 203.731 61.1233 205.349 61.1233H225.571C227.189 61.1233 228.501 62.9963 228.501 65.3066C228.501 67.6168 227.189 69.4898 225.571 69.4898Z" fill="#3BFBCD"/>
<path d="M230.672 126.468C235.129 126.468 238.743 122.854 238.743 118.396C238.743 113.939 235.129 110.325 230.672 110.325C226.214 110.325 222.6 113.939 222.6 118.396C222.6 122.854 226.214 126.468 230.672 126.468Z" fill="#29ABE2"/>
<path d="M189.072 125.226C192.673 125.226 195.591 122.308 195.591 118.707C195.591 115.107 192.673 112.188 189.072 112.188C185.472 112.188 182.553 115.107 182.553 118.707C182.553 122.308 185.472 125.226 189.072 125.226Z" fill="#29ABE2"/>
<path d="M277.083 92.6347C273.795 92.6347 270.649 93.2513 267.753 94.373L258.895 77.9609C258.85 77.8767 258.801 77.795 258.747 77.7163C258.722 77.6798 258.695 77.6461 258.669 77.6109C258.648 77.583 258.628 77.5546 258.606 77.5275V66.5562L267.091 74.3343C267.627 74.8252 268.301 75.0672 268.975 75.0672C269.729 75.0672 270.481 74.763 271.031 74.1628C272.072 73.0275 271.996 71.2632 270.86 70.2224L248.508 49.7331C247.373 48.6923 245.609 48.769 244.568 49.9043C243.527 51.0397 243.604 52.8039 244.739 53.8447L253.028 61.4432V76.4912H215.765V72.2784H225.571C228.778 72.2784 231.29 69.216 231.29 65.3063C231.29 61.3966 228.778 58.3342 225.571 58.3342H205.349C202.142 58.3342 199.63 61.3966 199.63 65.3063C199.63 69.216 202.142 72.2784 205.349 72.2784H210.188V78.4869L199.912 95.0861C196.572 93.5149 192.846 92.6347 188.917 92.6347C174.626 92.6347 163 104.261 163 118.552C163 132.842 174.626 144.469 188.917 144.469C203.208 144.469 214.834 132.843 214.834 118.552C214.834 116.969 214.691 115.418 214.418 113.913L220.905 113.652C220.205 115.086 219.812 116.696 219.812 118.397C219.812 120.158 220.236 121.821 220.983 123.293L219.978 123.263C218.433 123.21 217.152 124.425 217.105 125.965C217.058 127.504 218.268 128.79 219.807 128.838L228.936 129.116C229.502 129.208 230.081 129.257 230.672 129.257C236.66 129.257 241.532 124.385 241.532 118.397C241.532 115.515 240.402 112.893 238.563 110.947L255.55 83.5068L262.799 96.9382C255.795 101.583 251.167 109.537 251.167 118.552C251.167 132.843 262.793 144.469 277.084 144.469C291.374 144.469 303 132.842 303 118.552C303 104.261 291.374 92.6347 277.083 92.6347ZM205.207 65.3065C205.207 64.5867 205.439 64.1051 205.586 63.9121H225.333C225.48 64.1051 225.712 64.5867 225.712 65.3065C225.712 66.0263 225.48 66.508 225.333 66.701H205.586C205.439 66.508 205.207 66.0263 205.207 65.3065ZM230.672 107.536C230.116 107.536 229.571 107.578 229.038 107.659L217.894 82.0692H249.88L233.825 108.004C232.827 107.701 231.768 107.536 230.672 107.536ZM209.256 118.552C209.256 129.767 200.132 138.891 188.917 138.891C177.702 138.891 168.578 129.767 168.578 118.552C168.578 107.337 177.702 98.2124 188.917 98.2124C191.769 98.2124 194.485 98.805 196.951 99.8695L191.132 109.268L188.545 109.373C188.327 109.381 188.116 109.417 187.914 109.473C183.326 110.045 179.764 113.967 179.764 118.707C179.764 123.422 183.289 127.327 187.842 127.931C188.075 128.002 188.319 128.046 188.574 128.054L201.682 128.446C201.71 128.447 201.738 128.447 201.767 128.447C203.268 128.447 204.507 127.252 204.553 125.741C204.599 124.202 203.388 122.917 201.848 122.871L197.461 122.739C198.05 121.519 198.38 120.151 198.38 118.707C198.38 117.232 198.034 115.837 197.421 114.597L208.769 114.14C209.085 115.562 209.256 117.037 209.256 118.552ZM206.67 108.643L197.86 108.998L201.72 102.763C203.719 104.387 205.403 106.382 206.67 108.643ZM189.072 122.437C187.015 122.437 185.342 120.764 185.342 118.707C185.342 116.65 187.015 114.977 189.072 114.977C191.129 114.977 192.802 116.65 192.802 118.707C192.803 120.764 191.129 122.437 189.072 122.437ZM204.674 97.9901L212.933 84.6486L223.094 107.981L212.761 108.398C210.996 104.27 208.19 100.691 204.674 97.9901ZM231.272 123.642C231.136 123.618 230.997 123.599 230.854 123.595L229.543 123.555C227.171 123.036 225.389 120.922 225.389 118.396C225.389 117.284 225.736 116.253 226.325 115.401L228.115 119.51C228.572 120.56 229.597 121.186 230.673 121.186C231.045 121.186 231.423 121.111 231.785 120.953C233.197 120.339 233.844 118.695 233.229 117.283L231.44 113.176C233.989 113.55 235.955 115.745 235.955 118.397C235.955 121.106 233.903 123.343 231.272 123.642ZM277.083 138.891C265.868 138.891 256.744 129.767 256.744 118.552C256.744 111.655 260.197 105.553 265.462 101.874L267.618 105.868C268.122 106.802 269.083 107.332 270.075 107.332C270.522 107.332 270.975 107.225 271.397 106.997C272.752 106.266 273.258 104.574 272.527 103.218L270.431 99.3352C272.517 98.6109 274.754 98.2121 277.083 98.2121C288.298 98.2121 297.423 107.336 297.423 118.551C297.423 129.767 288.298 138.891 277.083 138.891Z" fill="black"/>
<path d="M277.566 112.556C276.835 111.201 275.143 110.695 273.787 111.426C272.432 112.158 271.926 113.85 272.657 115.205L275.095 119.721C275.599 120.655 276.559 121.186 277.551 121.186C277.999 121.186 278.452 121.078 278.873 120.851C280.229 120.119 280.735 118.427 280.003 117.072L277.566 112.556Z" fill="black"/>
</svg>
