<svg width="303" height="239" viewBox="0 0 303 239" fill="none" xmlns="http://www.w3.org/2000/svg">
<path d="M239 114.202V146.987C239 149.685 236.81 151.875 234.113 151.875H211.825C210.775 156.63 208.365 160.98 204.802 164.45C200.076 169.05 193.835 171.586 187.231 171.586C180.633 171.586 174.392 169.05 169.666 164.446C166.103 160.981 163.693 156.63 162.642 151.875H75.0432C73.9971 156.615 71.5828 160.975 68.0198 164.45C63.2888 169.05 57.0472 171.586 50.4491 171.586C43.8462 171.586 37.6047 169.05 32.8737 164.45C29.3158 160.98 26.9062 156.63 25.8554 151.875H4.88736C2.18928 151.875 0 149.685 0 146.987V129.519C0 122.271 2.60986 115.258 7.35065 109.774C12.0966 104.285 18.6555 100.688 25.8302 99.642L55.4289 95.3265L96.6895 74.3444C105.604 69.809 115.604 67.4139 125.604 67.4139H153.517C161.689 67.4139 169.675 68.9534 177.255 71.9936L222.792 90.2435C232.637 94.1926 239 103.596 239 114.202ZM229.225 142.1V127.516H226.991C218.052 127.516 210.774 120.238 210.774 111.294V104.931H179.846C179.841 104.931 179.841 104.931 179.841 104.931C179.837 104.931 179.837 104.931 179.837 104.931H57.3063L36.7542 107.927C35.0485 121.348 23.6213 131.768 9.77519 131.895V142.1H25.6304C27.6783 130.253 38.0201 121.206 50.4491 121.206C62.8733 121.206 73.2199 130.253 75.2677 142.1H162.417C164.465 130.253 174.807 121.206 187.231 121.206C199.66 121.206 210.002 130.253 212.05 142.1H229.225V142.1ZM229.225 117.741V114.202C229.225 110.785 228.154 107.579 226.283 104.93H220.549V111.294C220.549 114.847 223.443 117.74 226.991 117.74H229.225V117.741ZM182.246 95.1551H208.771L173.619 81.0644C172.608 80.6634 171.591 80.2923 170.569 79.9502L182.246 95.1551ZM202.651 146.396C202.651 137.882 195.75 130.981 187.236 130.981C178.723 130.981 171.816 137.882 171.816 146.396C171.816 154.91 178.723 161.811 187.236 161.811C195.75 161.811 202.651 154.91 202.651 146.396ZM169.92 95.1551L156.171 77.2521C155.291 77.2082 154.407 77.1886 153.517 77.1886H130.189V95.1551H169.92ZM120.414 95.1551V77.4477C113.708 78.0979 107.125 80.0039 101.118 83.0586L77.3305 95.1551H120.414ZM65.8594 146.396C65.8594 137.882 58.9583 130.981 50.4444 130.981C41.9305 130.981 35.0294 137.882 35.0294 146.396C35.0294 154.91 41.9305 161.811 50.4444 161.811C58.9583 161.811 65.8594 154.91 65.8594 146.396ZM11.2167 122.042C18.4796 121.348 24.4765 116.245 26.4851 109.447C19.4668 110.741 13.763 115.654 11.2167 122.042Z" fill="#1E0478"/>
<path d="M229.225 127.515V142.099H212.05C210.002 130.252 199.66 121.205 187.231 121.205C174.807 121.205 164.465 130.252 162.417 142.099H75.2677C73.2199 130.252 62.8729 121.205 50.4491 121.205C38.0202 121.205 27.6783 130.252 25.6304 142.099H9.77521V131.894C23.6213 131.767 35.0485 121.347 36.7542 107.926L57.3063 104.93H179.837C179.837 104.93 179.837 104.93 179.841 104.93C179.841 104.93 179.841 104.93 179.846 104.93H210.774V111.293C210.774 120.238 218.052 127.515 226.991 127.515L229.225 127.515ZM140.35 123.518C140.35 120.815 138.166 118.63 135.463 118.63H103.049C100.346 118.63 98.1618 120.815 98.1618 123.518C98.1618 126.216 100.346 128.405 103.049 128.405H135.463C138.165 128.405 140.35 126.215 140.35 123.518Z" fill="#9B8CCC"/>
<path d="M229.225 114.202V117.741H226.991C223.443 117.741 220.549 114.847 220.549 111.294V104.931H226.283C228.154 107.579 229.225 110.785 229.225 114.202Z" fill="#94E7EF"/>
<path d="M208.771 95.1552H182.246L170.569 79.9502C171.591 80.2924 172.607 80.6639 173.619 81.0644L208.771 95.1552Z" fill="white"/>
<path d="M187.236 130.981C195.75 130.981 202.651 137.882 202.651 146.396C202.651 154.91 195.75 161.811 187.236 161.811C178.723 161.811 171.816 154.91 171.816 146.396C171.816 137.882 178.722 130.981 187.236 130.981ZM193.712 146.396C193.712 142.818 190.814 139.915 187.236 139.915C183.654 139.915 180.755 142.818 180.755 146.396C180.755 149.974 183.654 152.877 187.236 152.877C190.814 152.877 193.712 149.974 193.712 146.396Z" fill="white"/>
<path d="M187.236 139.915C190.814 139.915 193.712 142.818 193.712 146.396C193.712 149.974 190.814 152.877 187.236 152.877C183.654 152.877 180.755 149.974 180.755 146.396C180.755 142.818 183.654 139.915 187.236 139.915Z" fill="#1E0478"/>
<path d="M156.171 77.2521L169.92 95.1551H130.189V77.1886H153.517C154.407 77.1886 155.291 77.2082 156.171 77.2521Z" fill="white"/>
<path d="M135.463 118.63C138.165 118.63 140.35 120.814 140.35 123.517C140.35 126.215 138.165 128.405 135.463 128.405H103.049C100.346 128.405 98.1613 126.215 98.1613 123.517C98.1613 120.814 100.346 118.63 103.049 118.63H135.463Z" fill="#1E0478"/>
<path d="M120.414 77.4477V95.1551H77.3305L101.118 83.0586C107.125 80.0038 113.708 78.0979 120.414 77.4477Z" fill="white"/>
<path d="M50.4439 130.981C58.9578 130.981 65.859 137.882 65.859 146.396C65.859 154.91 58.9578 161.811 50.4439 161.811C41.93 161.811 35.0289 154.91 35.0289 146.396C35.0289 137.882 41.93 130.981 50.4439 130.981ZM56.9249 146.396C56.9249 142.818 54.0266 139.915 50.4439 139.915C46.8664 139.915 43.9681 142.818 43.9681 146.396C43.9681 149.974 46.8664 152.877 50.4439 152.877C54.0266 152.877 56.9249 149.974 56.9249 146.396Z" fill="white"/>
<path d="M50.444 139.915C54.0266 139.915 56.925 142.818 56.925 146.396C56.925 149.974 54.0266 152.877 50.444 152.877C46.8664 152.877 43.9681 149.974 43.9681 146.396C43.9681 142.818 46.8664 139.915 50.444 139.915Z" fill="#1E0478"/>
<path d="M26.4856 109.446C24.477 116.245 18.48 121.347 11.2171 122.041C13.763 115.654 19.4668 110.741 26.4856 109.446Z" fill="#94E7EF"/>
<path d="M188.917 197.68C201.69 197.68 212.045 187.325 212.045 174.552C212.045 161.778 201.69 151.424 188.917 151.424C176.144 151.424 165.789 161.778 165.789 174.552C165.789 187.325 176.144 197.68 188.917 197.68Z" fill="#3BFBCD"/>
<path d="M277.083 197.68C289.856 197.68 300.211 187.325 300.211 174.552C300.211 161.778 289.856 151.424 277.083 151.424C264.31 151.424 253.955 161.778 253.955 174.552C253.955 187.325 264.31 197.68 277.083 197.68Z" fill="#3BFBCD"/>
<path d="M225.571 125.49H205.349C203.731 125.49 202.419 123.617 202.419 121.307C202.419 118.996 203.731 117.123 205.349 117.123H225.571C227.189 117.123 228.501 118.996 228.501 121.307C228.501 123.617 227.189 125.49 225.571 125.49Z" fill="#3BFBCD"/>
<path d="M230.672 182.468C235.129 182.468 238.743 178.854 238.743 174.396C238.743 169.939 235.129 166.325 230.672 166.325C226.214 166.325 222.6 169.939 222.6 174.396C222.6 178.854 226.214 182.468 230.672 182.468Z" fill="#29ABE2"/>
<path d="M189.072 181.226C192.673 181.226 195.591 178.308 195.591 174.707C195.591 171.107 192.673 168.188 189.072 168.188C185.472 168.188 182.553 171.107 182.553 174.707C182.553 178.308 185.472 181.226 189.072 181.226Z" fill="#29ABE2"/>
<path d="M277.083 148.635C273.795 148.635 270.649 149.251 267.753 150.373L258.895 133.961C258.85 133.877 258.801 133.795 258.747 133.716C258.722 133.68 258.695 133.646 258.669 133.611C258.648 133.583 258.628 133.555 258.606 133.528V122.556L267.091 130.334C267.627 130.825 268.301 131.067 268.975 131.067C269.729 131.067 270.481 130.763 271.031 130.163C272.072 129.027 271.996 127.263 270.86 126.222L248.508 105.733C247.373 104.692 245.609 104.769 244.568 105.904C243.527 107.04 243.604 108.804 244.739 109.845L253.028 117.443V132.491H215.765V128.278H225.571C228.778 128.278 231.29 125.216 231.29 121.306C231.29 117.397 228.778 114.334 225.571 114.334H205.349C202.142 114.334 199.63 117.397 199.63 121.306C199.63 125.216 202.142 128.278 205.349 128.278H210.188V134.487L199.912 151.086C196.572 149.515 192.846 148.635 188.917 148.635C174.626 148.635 163 160.261 163 174.552C163 188.842 174.626 200.469 188.917 200.469C203.208 200.469 214.834 188.843 214.834 174.552C214.834 172.969 214.691 171.418 214.418 169.913L220.905 169.652C220.205 171.086 219.812 172.696 219.812 174.397C219.812 176.158 220.236 177.821 220.983 179.293L219.978 179.263C218.433 179.21 217.152 180.425 217.105 181.965C217.058 183.504 218.268 184.79 219.807 184.838L228.936 185.116C229.502 185.208 230.081 185.257 230.672 185.257C236.66 185.257 241.532 180.385 241.532 174.397C241.532 171.515 240.402 168.893 238.563 166.947L255.55 139.507L262.799 152.938C255.795 157.583 251.167 165.537 251.167 174.552C251.167 188.843 262.793 200.469 277.084 200.469C291.374 200.469 303 188.842 303 174.552C303 160.261 291.374 148.635 277.083 148.635ZM205.207 121.307C205.207 120.587 205.439 120.105 205.586 119.912H225.333C225.48 120.105 225.712 120.587 225.712 121.307C225.712 122.026 225.48 122.508 225.333 122.701H205.586C205.439 122.508 205.207 122.026 205.207 121.307ZM230.672 163.536C230.116 163.536 229.571 163.578 229.038 163.659L217.894 138.069H249.88L233.825 164.004C232.827 163.701 231.768 163.536 230.672 163.536ZM209.256 174.552C209.256 185.767 200.132 194.891 188.917 194.891C177.702 194.891 168.578 185.767 168.578 174.552C168.578 163.337 177.702 154.212 188.917 154.212C191.769 154.212 194.485 154.805 196.951 155.87L191.132 165.268L188.545 165.373C188.327 165.381 188.116 165.417 187.914 165.473C183.326 166.045 179.764 169.967 179.764 174.707C179.764 179.422 183.289 183.327 187.842 183.931C188.075 184.002 188.319 184.046 188.574 184.054L201.682 184.446C201.71 184.447 201.738 184.447 201.767 184.447C203.268 184.447 204.507 183.252 204.553 181.741C204.599 180.202 203.388 178.917 201.848 178.871L197.461 178.739C198.05 177.519 198.38 176.151 198.38 174.707C198.38 173.232 198.034 171.837 197.421 170.597L208.769 170.14C209.085 171.562 209.256 173.037 209.256 174.552ZM206.67 164.643L197.86 164.998L201.72 158.763C203.719 160.387 205.403 162.382 206.67 164.643ZM189.072 178.437C187.015 178.437 185.342 176.764 185.342 174.707C185.342 172.65 187.015 170.977 189.072 170.977C191.129 170.977 192.802 172.65 192.802 174.707C192.803 176.764 191.129 178.437 189.072 178.437ZM204.674 153.99L212.933 140.649L223.094 163.981L212.761 164.398C210.996 160.27 208.19 156.691 204.674 153.99ZM231.272 179.642C231.136 179.618 230.997 179.599 230.854 179.595L229.543 179.555C227.171 179.036 225.389 176.922 225.389 174.396C225.389 173.284 225.736 172.253 226.325 171.401L228.115 175.51C228.572 176.56 229.597 177.186 230.673 177.186C231.045 177.186 231.423 177.111 231.785 176.953C233.197 176.339 233.844 174.695 233.229 173.283L231.44 169.176C233.989 169.55 235.955 171.745 235.955 174.397C235.955 177.106 233.903 179.343 231.272 179.642ZM277.083 194.891C265.868 194.891 256.744 185.767 256.744 174.552C256.744 167.655 260.197 161.553 265.462 157.874L267.618 161.868C268.122 162.802 269.083 163.332 270.075 163.332C270.522 163.332 270.975 163.225 271.397 162.997C272.752 162.266 273.258 160.574 272.527 159.218L270.431 155.335C272.517 154.611 274.754 154.212 277.083 154.212C288.298 154.212 297.423 163.336 297.423 174.551C297.423 185.767 288.298 194.891 277.083 194.891Z" fill="black"/>
<path d="M277.566 168.556C276.835 167.201 275.143 166.695 273.787 167.426C272.432 168.158 271.926 169.85 272.657 171.205L275.095 175.721C275.599 176.655 276.559 177.186 277.551 177.186C277.999 177.186 278.452 177.078 278.873 176.851C280.229 176.119 280.735 174.427 280.003 173.072L277.566 168.556Z" fill="black"/>
</svg>
