<svg width="240" height="240" viewBox="0 0 240 240" fill="none" xmlns="http://www.w3.org/2000/svg">
<path d="M218.9 187.88C218.47 188.51 218.03 189.13 217.59 189.75L216.58 187.72L216.42 187.39L215.42 185.39L189.96 134.08L189.95 134.07L146.79 47.13V47.12L145.8 45.13V45.12L124.44 2.09005L123.43 0.0500488C124.19 0.0700488 124.95 0.100053 125.71 0.140053L126.73 2.19005L148.03 45.12L148.04 45.13L149.03 47.12V47.13L191.09 131.86V131.87L192.08 133.86V133.87L217.54 185.14L217.88 185.83L218.9 187.88Z" fill="#3F3D56"/>
<path d="M215.27 47.13H24.73C25.2402 46.46 25.7598 45.79 26.2998 45.13H213.7C214.24 45.79 214.76 46.46 215.27 47.13Z" fill="#3F3D56"/>
<path d="M239.41 131.87C239.35 132.54 239.28 133.21 239.19 133.87H190.38V131.87H239.41Z" fill="#3F3D56"/>
<path d="M31.98 38.54V201.46C31.29 200.73 30.6299 199.99 29.98 199.25V40.75C30.6299 40.01 31.29 39.27 31.98 38.54Z" fill="#3F3D56"/>
<path d="M217.042 185.389H30.9802V187.389H217.042V185.389Z" fill="#3F3D56"/>
<path d="M147.464 93.2717C147.464 110.317 122.396 158.386 112.981 175.838C112.639 176.473 112.132 177.004 111.513 177.374C110.893 177.743 110.186 177.939 109.464 177.939C108.743 177.939 108.035 177.743 107.416 177.374C106.797 177.004 106.289 176.473 105.947 175.838C96.5324 158.386 71.4644 110.317 71.4644 93.2717C71.4644 83.1934 75.4679 73.528 82.5943 66.4016C89.7207 59.2752 99.3861 55.2717 109.464 55.2717C119.543 55.2717 129.208 59.2752 136.334 66.4016C143.461 73.528 147.464 83.1934 147.464 93.2717V93.2717Z" fill="#6C63FF"/>
<path d="M109.465 110.272C118.853 110.272 126.465 102.661 126.465 93.2717C126.465 83.8828 118.853 76.2717 109.465 76.2717C100.076 76.2717 92.4646 83.8828 92.4646 93.2717C92.4646 102.661 100.076 110.272 109.465 110.272Z" fill="white"/>
<path d="M109.465 194.272C113.331 194.272 116.465 191.138 116.465 187.272C116.465 183.406 113.331 180.272 109.465 180.272C105.599 180.272 102.465 183.406 102.465 187.272C102.465 191.138 105.599 194.272 109.465 194.272Z" fill="#6C63FF"/>
<path d="M216.81 187.39H217.04V187.06C216.97 187.175 216.893 187.285 216.81 187.39V187.39ZM215.27 47.13C214.76 46.46 214.24 45.79 213.7 45.13C203.078 31.8031 189.735 20.8961 174.561 13.1377C159.387 5.37934 142.733 0.948102 125.71 0.140016C124.95 0.0999764 124.19 0.0699801 123.43 0.0500201C122.29 0.0200201 121.15 1.70196e-05 120 1.70196e-05C103.462 -0.00880423 87.1007 3.4115 71.9508 10.045C56.8009 16.6785 43.1908 26.381 31.98 38.54C31.2901 39.27 30.6299 40.01 29.98 40.75C28.71 42.18 27.4833 43.64 26.2999 45.13C25.7599 45.79 25.2403 46.46 24.73 47.13C7.83048 69.1615 -0.886428 96.3816 0.0712868 124.132C1.029 151.882 11.6018 178.436 29.98 199.25C30.6299 199.99 31.2901 200.73 31.98 201.46C44.065 214.548 58.9157 224.776 75.4515 231.402C91.9873 238.028 109.792 240.884 127.571 239.762C145.349 238.641 162.654 233.57 178.226 224.918C193.798 216.267 207.246 204.253 217.59 189.75C218.03 189.13 218.47 188.51 218.9 187.88C229.99 171.813 236.958 153.265 239.19 133.87C239.28 133.21 239.35 132.54 239.41 131.87C239.8 127.97 239.996 124.013 240 120C240.03 93.6455 231.335 68.0223 215.27 47.13L215.27 47.13ZM237.18 133.87C235.003 152.486 228.384 170.307 217.88 185.83C217.61 186.24 217.33 186.65 217.04 187.06C216.97 187.175 216.893 187.285 216.81 187.39C216.74 187.5 216.66 187.61 216.58 187.72C206.379 202.295 193.011 214.372 177.478 223.045C161.945 231.718 144.65 236.762 126.89 237.8C109.13 238.837 91.3651 235.84 74.9281 229.034C58.4911 222.228 43.8081 211.789 31.98 198.5C31.29 197.74 30.6201 196.98 29.98 196.2C12.3957 175.483 2.51728 149.321 2.01971 122.152C1.52215 94.9827 10.4361 68.4774 27.25 47.13C27.7803 46.46 28.3101 45.79 28.8599 45.13C29.2202 44.68 29.5899 44.24 29.98 43.8C30.6201 43.02 31.29 42.26 31.98 41.5C43.0271 29.0699 56.5835 19.1226 71.7555 12.314C86.9275 5.50544 103.37 1.99016 120 1.99997C121.49 1.99997 122.97 2.02997 124.44 2.08997C125.21 2.10997 125.97 2.14997 126.73 2.18997C143.004 3.12029 158.909 7.4168 173.438 14.8079C187.967 22.199 200.805 32.5239 211.14 45.13C211.69 45.79 212.22 46.46 212.75 47.13C229.133 67.8833 238.03 93.5595 238 120C238 124.01 237.803 127.967 237.41 131.87C237.34 132.54 237.27 133.21 237.18 133.87L237.18 133.87ZM216.81 187.39H217.04V187.06C216.97 187.175 216.893 187.285 216.81 187.39H216.81Z" fill="#CCCCCC"/>
</svg>
