<svg width="180" height="180" viewBox="0 0 180 180" fill="none" xmlns="http://www.w3.org/2000/svg">
<path d="M152.07 158.276C150.353 158.276 148.966 156.889 148.966 155.172V52.7585C148.966 51.0422 150.353 49.655 152.07 49.655C153.786 49.655 155.173 51.0422 155.173 52.7585V155.172C155.173 156.889 153.786 158.276 152.07 158.276Z" fill="#CAD3DB"/>
<path d="M124.138 108.621H122.593C119.831 108.621 117.401 106.796 116.631 104.145L105.67 66.4043C103.693 61.8858 99.227 58.9654 94.2954 58.9654H36.0503C31.119 58.9654 26.653 61.8858 24.676 66.4043L13.7149 104.145C12.9453 106.796 10.5152 108.621 7.75327 108.621H6.20762C2.77837 108.621 0.000701904 111.398 0.000701904 114.828V148.966C0.000701904 152.395 2.77837 155.173 6.20762 155.173H124.138C127.568 155.173 130.345 152.395 130.345 148.966V114.828C130.345 111.398 127.568 108.621 124.138 108.621Z" fill="#25B960"/>
<path d="M21.7249 180H15.518C12.0888 180 9.3111 177.222 9.3111 173.793V155.172H27.9319V173.793C27.9315 177.222 25.1542 180 21.7249 180Z" fill="#485762"/>
<path d="M114.828 180H108.621C105.192 180 102.414 177.222 102.414 173.793V155.172H121.035V173.793C121.035 177.222 118.258 180 114.828 180Z" fill="#485762"/>
<path d="M34.1384 130.345C34.1384 135.487 29.9703 139.655 24.8281 139.655C19.6858 139.655 15.5177 135.487 15.5177 130.345C15.5177 125.203 19.6858 121.035 24.8281 121.035C29.9703 121.035 34.1384 125.202 34.1384 130.345Z" fill="#FFD06C"/>
<path d="M114.828 130.345C114.828 135.487 110.66 139.655 105.518 139.655C100.375 139.655 96.2073 135.487 96.2073 130.345C96.2073 125.203 100.375 121.035 105.518 121.035C110.66 121.035 114.828 125.202 114.828 130.345Z" fill="#FFD06C"/>
<path d="M71.38 139.655H58.9661C57.2499 139.655 55.8627 138.268 55.8627 136.552C55.8627 134.835 57.2499 133.448 58.9661 133.448H71.38C73.0962 133.448 74.4834 134.835 74.4834 136.552C74.4834 138.268 73.0962 139.655 71.38 139.655Z" fill="#485762"/>
<path d="M77.5869 127.242H52.7592C51.043 127.242 49.6557 125.854 49.6557 124.138C49.6557 122.422 51.043 121.035 52.7592 121.035H77.5869C79.3031 121.035 80.6903 122.422 80.6903 124.138C80.6903 125.854 79.3031 127.242 77.5869 127.242Z" fill="#485762"/>
<path d="M95.1398 102.414H35.2063C33.1271 102.414 31.6372 100.409 32.2334 98.4196L39.6816 73.5919C40.0757 72.279 41.283 71.3792 42.6545 71.3792H87.6919C89.0638 71.3792 90.2707 72.2794 90.6648 73.5919L98.1131 98.4196C98.7089 100.409 97.2194 102.414 95.1398 102.414Z" fill="#D0E8F9"/>
<path d="M133.448 180H170.689V167.586H133.448V180Z" fill="#485762"/>
<path d="M142.758 167.586H161.379V155.172H142.758V167.586Z" fill="#95ACB9"/>
<path d="M127.241 52.7585H179.999V0H127.241V52.7585Z" fill="#2080E0"/>
<path d="M148.966 43.4485C147.25 43.4485 145.863 42.0612 145.863 40.345V12.4139C145.863 10.6976 147.25 9.31039 148.966 9.31039C150.682 9.31039 152.07 10.6976 152.07 12.4139V40.345C152.07 42.0609 150.682 43.4485 148.966 43.4485Z" fill="white"/>
<path d="M152.07 27.9312H155.173C158.596 27.9312 161.38 25.1474 161.38 21.7242C161.38 18.3011 158.596 15.5173 155.173 15.5173H152.07V27.9312ZM155.173 34.1381H148.966C147.25 34.1381 145.863 32.7509 145.863 31.0346V12.4139C145.863 10.6976 147.25 9.31039 148.966 9.31039H155.173C162.019 9.31039 167.587 14.8779 167.587 21.7242C167.587 28.5706 162.019 34.1381 155.173 34.1381Z" fill="white"/>
</svg>
