<svg width="1038" height="773" viewBox="0 0 1038 773" fill="none" xmlns="http://www.w3.org/2000/svg">
<g clip-path="url(#clip0)">
<path opacity="0.1" d="M104.4 77.33C97.9399 80.01 91.3099 83.45 87.7599 89.48C83.9999 95.85 84.4499 103.76 85.1499 111.13C91.2499 175.05 107.32 243.03 79.5699 300.93C66.0999 329.02 43.5699 351.53 25.6499 377.04C7.72994 402.55 -5.80007 434.4 2.51993 464.41C12.6799 501.08 50.5999 521.41 76.1599 549.63C92.8899 568.08 104.62 590.5 120.23 609.91C135.84 629.32 157.23 646.42 182.15 647.56C217.99 649.21 247.15 618.26 282.29 611.09C318.29 603.75 354.54 622.43 383.73 644.79C412.92 667.15 439.47 694.24 473.48 708.2C511.04 723.63 553.38 721.27 592.92 730.54C628.92 738.99 662.06 756.96 697.8 766.54C733.54 776.12 775.43 775.54 803.12 751.07C839.21 719.07 836.37 662.07 859.42 619.74C880.83 580.41 922.74 556.93 950.95 522.16C1001.71 459.58 1000.05 363.93 956.95 295.87C913.85 227.81 835.78 186.6 755.95 175.87C719.95 171.04 682.88 171.7 648.27 160.71C555.63 131.31 500.5 25.97 405.92 4.05001C345.8 -9.85999 287.33 14.23 236.12 43.88C191.67 69.62 150.66 58.14 104.4 77.33Z" fill="#6C63FF"/>
<path d="M194.68 283.83C194.68 283.83 160.55 316.04 123.92 317C108.538 317.306 93.6705 322.594 81.55 332.07C75.8208 336.599 70.5187 341.643 65.71 347.14" stroke="#535461" stroke-width="2" stroke-miterlimit="10"/>
<path d="M42.6099 347.93C47.5299 345.43 66.3099 347.09 66.3099 347.09C66.3099 347.09 56.5699 363.24 51.6499 365.74C50.4716 366.438 49.1623 366.887 47.8033 367.059C46.4443 367.231 45.0646 367.121 43.7496 366.738C42.4347 366.354 41.2125 365.704 40.1591 364.829C39.1056 363.953 38.2432 362.871 37.6254 361.648C37.0076 360.425 36.6475 359.089 36.5676 357.722C36.4876 356.354 36.6895 354.985 37.1606 353.699C37.6317 352.412 38.362 351.237 39.3063 350.244C40.2506 349.252 41.3886 348.464 42.6499 347.93H42.6099Z" fill="#6C63FF"/>
<path d="M62.3801 319.38C67.8701 319.96 82.73 331.56 82.73 331.56C82.73 331.56 65.73 339.82 60.29 339.25C57.7449 338.865 55.4461 337.514 53.8719 335.478C52.2978 333.441 51.5696 330.876 51.8388 328.316C52.1081 325.756 53.3541 323.399 55.3175 321.734C57.281 320.07 59.8106 319.227 62.3801 319.38V319.38Z" fill="#6C63FF"/>
<path d="M109.26 296.37C113.7 299.64 120.68 317.16 120.68 317.16C120.68 317.16 101.87 315.73 97.4301 312.47C95.4289 310.853 94.1278 308.527 93.7974 305.976C93.467 303.424 94.1328 300.844 95.6562 298.77C97.1796 296.697 99.4434 295.291 101.977 294.844C104.511 294.397 107.119 294.943 109.26 296.37V296.37Z" fill="#6C63FF"/>
<path d="M148.65 286.96C153.58 289.43 163.42 305.52 163.42 305.52C163.42 305.52 144.64 307.29 139.71 304.82C138.466 304.277 137.346 303.486 136.417 302.496C135.489 301.506 134.772 300.337 134.309 299.061C133.847 297.785 133.65 296.428 133.729 295.073C133.808 293.718 134.162 292.393 134.769 291.179C135.377 289.966 136.225 288.888 137.263 288.013C138.3 287.138 139.505 286.483 140.803 286.088C142.102 285.693 143.467 285.567 144.816 285.717C146.165 285.867 147.47 286.29 148.65 286.96V286.96Z" fill="#6C63FF"/>
<path d="M93.1799 349.77C94.8199 344.5 90.0199 326.26 90.0199 326.26C90.0199 326.26 75.7399 338.58 74.0999 343.85C73.6378 345.122 73.4386 346.475 73.5145 347.826C73.5904 349.177 73.9398 350.499 74.5415 351.711C75.1431 352.923 75.9846 354 77.0149 354.878C78.0452 355.755 79.2429 356.415 80.5354 356.816C81.8279 357.217 83.1884 357.351 84.5345 357.211C85.8805 357.071 87.1841 356.659 88.3663 356C89.5484 355.342 90.5846 354.45 91.412 353.379C92.2394 352.308 92.8409 351.08 93.1799 349.77V349.77Z" fill="#6C63FF"/>
<path d="M139.11 338.14C139.11 332.62 129.06 316.66 129.06 316.66C129.06 316.66 119.12 332.66 119.13 338.2C119.138 340.852 120.199 343.393 122.08 345.262C123.961 347.132 126.508 348.178 129.16 348.17C131.812 348.162 134.352 347.101 136.222 345.22C138.092 343.339 139.138 340.792 139.13 338.14H139.11Z" fill="#6C63FF"/>
<path d="M182.2 320.78C183.12 315.34 175.92 297.91 175.92 297.91C175.92 297.91 163.41 312.03 162.5 317.47C162.193 320.022 162.88 322.595 164.419 324.654C165.959 326.712 168.232 328.099 170.766 328.526C173.301 328.954 175.903 328.388 178.032 326.948C180.161 325.507 181.654 323.302 182.2 320.79V320.78Z" fill="#6C63FF"/>
<path d="M239.03 198.53C239.03 198.53 197.92 175.95 185.7 141.36C180.68 126.815 171.076 114.291 158.33 105.67C152.248 101.623 145.808 98.1416 139.09 95.27" stroke="#535461" stroke-width="2" stroke-miterlimit="10"/>
<path d="M131.29 73.52C135.18 77.43 139.37 95.82 139.37 95.82C139.37 95.82 121.01 91.52 117.12 87.6C115.402 85.6923 114.484 83.197 114.555 80.6309C114.626 78.0647 115.682 75.6243 117.503 73.8148C119.324 72.0053 121.771 70.9655 124.337 70.9106C126.904 70.8558 129.393 71.79 131.29 73.52V73.52Z" fill="#6C63FF"/>
<path d="M164.54 83.55C165.68 88.95 159.21 106.66 159.21 106.66C159.21 106.66 146.14 93.07 145 87.66C144.662 86.3516 144.592 84.9883 144.795 83.6522C144.998 82.3162 145.47 81.0352 146.182 79.8866C146.895 78.7381 147.832 77.7458 148.938 76.9697C150.045 76.1936 151.297 75.6497 152.619 75.3711C153.942 75.0924 155.307 75.0846 156.632 75.3483C157.958 75.6119 159.216 76.1415 160.331 76.9049C161.446 77.6684 162.395 78.65 163.12 79.7904C163.845 80.9308 164.332 82.2064 164.55 83.54L164.54 83.55Z" fill="#6C63FF"/>
<path d="M200.84 121.14C199.1 126.37 184.57 138.4 184.57 138.4C184.57 138.4 180.15 120.07 181.89 114.83C182.727 112.31 184.53 110.226 186.903 109.037C189.277 107.847 192.026 107.648 194.545 108.485C197.065 109.322 199.149 111.125 200.339 113.498C201.528 115.872 201.727 118.62 200.89 121.14H200.84Z" fill="#6C63FF"/>
<path d="M221.92 155.69C221.09 161.14 208.8 175.45 208.8 175.45C208.8 175.45 201.34 158.13 202.17 152.68C202.308 151.333 202.719 150.028 203.376 148.845C204.034 147.661 204.925 146.623 205.995 145.794C207.066 144.966 208.294 144.363 209.604 144.022C210.915 143.682 212.281 143.611 213.619 143.815C214.958 144.018 216.241 144.491 217.392 145.205C218.542 145.919 219.535 146.86 220.312 147.969C221.088 149.079 221.63 150.334 221.907 151.66C222.183 152.985 222.188 154.353 221.92 155.68V155.69Z" fill="#6C63FF"/>
<path d="M145.08 122.21C150.6 122.15 166.48 111.97 166.48 111.97C166.48 111.97 150.37 102.17 144.85 102.23C142.198 102.261 139.666 103.343 137.813 105.24C135.959 107.137 134.935 109.693 134.965 112.345C134.996 114.997 136.078 117.529 137.975 119.382C139.872 121.236 142.428 122.261 145.08 122.23V122.21Z" fill="#6C63FF"/>
<path d="M170.24 162.35C175.48 160.64 187.59 146.18 187.59 146.18C187.59 146.18 169.28 141.65 164.04 143.36C162.747 143.729 161.541 144.355 160.496 145.201C159.45 146.046 158.586 147.094 157.955 148.281C157.323 149.469 156.938 150.771 156.822 152.111C156.705 153.45 156.86 154.8 157.278 156.078C157.695 157.357 158.365 158.538 159.25 159.551C160.134 160.564 161.213 161.389 162.423 161.975C163.633 162.561 164.949 162.898 166.292 162.964C167.635 163.03 168.978 162.825 170.24 162.36V162.35Z" fill="#6C63FF"/>
<path d="M200.04 198.01C205.5 197.21 219.88 185.01 219.88 185.01C219.88 185.01 202.6 177.45 197.15 178.25C195.808 178.388 194.507 178.797 193.327 179.451C192.147 180.105 191.111 180.992 190.283 182.056C189.454 183.121 188.85 184.343 188.506 185.648C188.162 186.953 188.085 188.314 188.281 189.649C188.477 190.984 188.941 192.265 189.645 193.416C190.349 194.567 191.279 195.564 192.379 196.346C193.479 197.128 194.725 197.68 196.043 197.967C197.362 198.255 198.725 198.273 200.05 198.02L200.04 198.01Z" fill="#6C63FF"/>
<path d="M521.94 746.41C721.867 746.41 883.94 584.337 883.94 384.41C883.94 184.483 721.867 22.41 521.94 22.41C322.013 22.41 159.94 184.483 159.94 384.41C159.94 584.337 322.013 746.41 521.94 746.41Z" fill="url(#paint0_linear)"/>
<path d="M521.94 740.41C718.553 740.41 877.94 581.023 877.94 384.41C877.94 187.797 718.553 28.41 521.94 28.41C325.327 28.41 165.94 187.797 165.94 384.41C165.94 581.023 325.327 740.41 521.94 740.41Z" fill="#6C63FF"/>
<path d="M521.94 667.41C678.237 667.41 804.94 540.707 804.94 384.41C804.94 228.113 678.237 101.41 521.94 101.41C365.643 101.41 238.94 228.113 238.94 384.41C238.94 540.707 365.643 667.41 521.94 667.41Z" fill="#DDE1EC"/>
<path opacity="0.3" d="M529.94 151.41H513.94V401.41H529.94V151.41Z" fill="#535461"/>
<g opacity="0.1">
<path opacity="0.1" d="M764.94 378.41H538.94V398.41H764.94V378.41Z" fill="black"/>
<path opacity="0.1" d="M379.382 303.584L370.103 321.302L512.305 395.769L521.583 378.052L379.382 303.584Z" fill="black"/>
<path opacity="0.1" d="M521.94 418.41C538.508 418.41 551.94 404.979 551.94 388.41C551.94 371.841 538.508 358.41 521.94 358.41C505.371 358.41 491.94 371.841 491.94 388.41C491.94 404.979 505.371 418.41 521.94 418.41Z" fill="black"/>
</g>
<path d="M764.94 374.41H538.94V394.41H764.94V374.41Z" fill="#535461"/>
<path d="M521.649 374.075L379.447 299.607L370.169 317.325L512.37 391.792L521.649 374.075Z" fill="#535461"/>
<path d="M521.94 414.41C538.508 414.41 551.94 400.979 551.94 384.41C551.94 367.841 538.508 354.41 521.94 354.41C505.371 354.41 491.94 367.841 491.94 384.41C491.94 400.979 505.371 414.41 521.94 414.41Z" fill="#535461"/>
<path d="M963.32 444.28C963.32 444.28 921.48 486.12 945.1 548.2C968.72 610.28 904.62 713.52 904.62 713.52C904.62 713.52 905.31 713.42 906.62 713.2C992.55 698.03 1035.24 599.76 987.46 526.75C969.65 499.6 955.07 467.76 963.32 444.28Z" fill="#6C63FF"/>
<path opacity="0.1" d="M963.32 444.98C963.32 444.98 921.48 486.82 945.1 548.9C968.72 610.98 904.62 714.21 904.62 714.21C904.62 714.21 905.31 714.11 906.62 713.89C992.55 698.72 1035.24 600.45 987.46 527.44C969.65 500.3 955.07 468.46 963.32 444.98Z" fill="black"/>
<path d="M963.32 444.28C963.32 444.28 939.7 495.56 963.32 537.4C986.94 579.24 967.32 696.65 904.61 713.52" stroke="#535461" stroke-miterlimit="10"/>
<path d="M1037.84 613.5C1037.84 613.5 990.1 605.9 985.75 648.68C981.4 691.46 893.92 697.39 893.92 697.39L895.56 698.48C967.76 745.88 1036.79 728.67 1026.38 665.73C1022.54 642.34 1022.86 618.84 1037.84 613.5Z" fill="#6C63FF"/>
<path d="M1037.84 613.5C1037.84 613.5 1000.78 621.63 1003.84 655.33C1006.9 689.03 948.84 729.42 893.96 697.4" stroke="#535461" stroke-miterlimit="10"/>
<path d="M995.84 698.95C995.84 698.95 958.24 691.43 948.21 681.4C938.18 671.37 893.06 653.83 888.05 666.4C883.04 678.97 820.37 721.55 862.98 729.07C905.59 736.59 963.25 739.07 975.78 734.07C988.31 729.07 995.84 698.95 995.84 698.95Z" fill="#A8A8A8"/>
<path opacity="0.2" d="M862.98 724.38C905.6 731.9 963.25 734.38 975.78 729.38C985.33 725.56 991.96 707.22 994.58 698.68L995.83 698.94C995.83 698.94 988.31 729.02 975.78 734.03C963.25 739.04 905.59 736.54 862.98 729.03C850.68 726.86 847.16 721.76 848.49 715.31C849.53 719.52 853.82 722.76 862.98 724.38Z" fill="black"/>
</g>
<defs>
<linearGradient id="paint0_linear" x1="521.94" y1="746.41" x2="521.94" y2="22.41" gradientUnits="userSpaceOnUse">
<stop stop-color="#808080" stop-opacity="0.25"/>
<stop offset="0.54" stop-color="#808080" stop-opacity="0.12"/>
<stop offset="1" stop-color="#808080" stop-opacity="0.1"/>
</linearGradient>
<clipPath id="clip0">
<rect width="1037.94" height="772.29" fill="white"/>
</clipPath>
</defs>
</svg>
