<svg width="860" height="633" viewBox="0 0 860 633" fill="none" xmlns="http://www.w3.org/2000/svg">
<g clip-path="url(#clip0)">
<path d="M676.633 316.244C666.04 315.804 656.389 311.529 652.023 304.906C651.819 304.596 651.626 304.282 651.446 303.963C649.852 301.141 649.354 297.897 651.097 295.116C652.84 292.335 657.197 290.223 661.565 290.662C665.933 291.101 669.35 294.588 667.541 297.348C667.141 291.77 666.806 285.909 671.303 281.054C673.778 278.517 677.008 276.848 680.51 276.296C689.572 274.702 695.588 279.826 696.793 284.996C697.682 288.815 696.454 292.696 695.231 296.475C699 292.018 707.963 290.035 714.831 292.14C721.699 294.245 725.504 300.14 723.159 305.04C720.396 310.804 711.185 313.783 702.629 315.358C695.562 316.659 684.968 316.59 676.633 316.244Z" fill="#F2F2F2"/>
<path d="M161.22 225.244C171.813 224.804 181.464 220.529 185.829 213.906C186.034 213.596 186.226 213.282 186.406 212.963C188 210.141 188.498 206.897 186.755 204.116C185.012 201.335 180.655 199.223 176.287 199.662C171.919 200.101 168.501 203.588 170.311 206.348C170.711 200.77 171.046 194.909 166.549 190.054C164.074 187.517 160.845 185.848 157.343 185.296C148.281 183.702 142.265 188.826 141.06 193.996C140.171 197.815 141.399 201.696 142.622 205.475C138.853 201.018 129.89 199.035 123.022 201.14C116.154 203.245 112.348 209.14 114.694 214.04C117.457 219.804 126.668 222.783 135.224 224.358C142.291 225.659 152.884 225.59 161.22 225.244Z" fill="#F2F2F2"/>
<path d="M390.029 165.866C382.354 165.866 374.851 163.59 368.469 159.326C362.088 155.062 357.114 149.001 354.177 141.91C351.239 134.819 350.471 127.017 351.968 119.489C353.466 111.961 357.162 105.047 362.589 99.6194C368.016 94.1922 374.931 90.4962 382.458 88.9989C389.986 87.5015 397.789 88.27 404.88 91.2072C411.971 94.1443 418.032 99.1183 422.296 105.5C426.56 111.882 428.836 119.385 428.836 127.06C428.824 137.348 424.732 147.212 417.457 154.487C410.182 161.762 400.318 165.855 390.029 165.866ZM390.029 94.721C383.633 94.721 377.381 96.6176 372.063 100.171C366.745 103.724 362.6 108.775 360.152 114.684C357.704 120.593 357.064 127.096 358.312 133.369C359.56 139.642 362.64 145.404 367.162 149.927C371.685 154.449 377.447 157.529 383.72 158.777C389.993 160.025 396.496 159.385 402.405 156.937C408.314 154.489 413.365 150.344 416.918 145.026C420.471 139.708 422.368 133.456 422.368 127.06C422.358 118.486 418.948 110.266 412.886 104.203C406.823 98.1408 398.603 94.7306 390.029 94.721Z" fill="#6C63FF"/>
<path d="M388.756 78.5515C387.898 78.5515 387.075 78.2108 386.469 77.6043C385.862 76.9978 385.522 76.1753 385.522 75.3177V38.128C385.522 37.2704 385.862 36.4478 386.469 35.8413C387.075 35.2349 387.898 34.8942 388.756 34.8942C389.613 34.8942 390.436 35.2349 391.042 35.8413C391.649 36.4478 391.99 37.2704 391.99 38.128V75.3177C391.989 76.1753 391.649 76.9979 391.042 77.6043C390.436 78.2108 389.613 78.5515 388.756 78.5515Z" fill="#6C63FF"/>
<path d="M338.287 129.021H301.097C300.24 129.021 299.417 128.68 298.811 128.074C298.204 127.467 297.864 126.645 297.864 125.787C297.864 124.929 298.204 124.107 298.811 123.5C299.417 122.894 300.24 122.553 301.097 122.553H338.287C339.145 122.553 339.967 122.894 340.574 123.5C341.18 124.107 341.521 124.929 341.521 125.787C341.521 126.645 341.18 127.467 340.574 128.074C339.967 128.68 339.145 129.021 338.287 129.021H338.287Z" fill="#6C63FF"/>
<path d="M474.11 129.021H436.92C436.063 129.021 435.24 128.68 434.634 128.074C434.027 127.467 433.687 126.645 433.687 125.787C433.687 124.929 434.027 124.107 434.634 123.5C435.24 122.894 436.063 122.553 436.92 122.553H474.11C474.968 122.553 475.79 122.894 476.397 123.5C477.003 124.107 477.344 124.929 477.344 125.787C477.344 126.645 477.003 127.467 476.397 128.074C475.79 128.68 474.968 129.021 474.11 129.021Z" fill="#6C63FF"/>
<path d="M435.899 93.6614C435.255 93.6615 434.626 93.4693 434.092 93.1096C433.558 92.7499 433.144 92.239 432.902 91.6424C432.66 91.0458 432.602 90.3905 432.734 89.7606C432.867 89.1306 433.185 88.5546 433.647 88.1064L449.221 72.9965C449.526 72.7 449.886 72.4664 450.281 72.3092C450.676 72.152 451.098 72.0742 451.523 72.0803C451.948 72.0864 452.368 72.1762 452.758 72.3447C453.149 72.5132 453.502 72.757 453.798 73.0621C454.094 73.3673 454.327 73.7278 454.483 74.1231C454.64 74.5184 454.717 74.9407 454.71 75.3657C454.703 75.7908 454.613 76.2104 454.444 76.6005C454.275 76.9905 454.03 77.3434 453.725 77.6389L438.15 92.7487C437.548 93.3352 436.74 93.6627 435.899 93.6614V93.6614Z" fill="#6C63FF"/>
<path d="M340.926 93.6614C340.085 93.6626 339.277 93.3351 338.674 92.7488L323.1 77.6389C322.794 77.3434 322.55 76.9905 322.381 76.6005C322.212 76.2104 322.121 75.7908 322.114 75.3657C322.107 74.9407 322.184 74.5184 322.341 74.1231C322.498 73.7278 322.73 73.3673 323.026 73.0621C323.323 72.757 323.676 72.5132 324.066 72.3447C324.456 72.1762 324.876 72.0864 325.301 72.0803C325.726 72.0742 326.149 72.152 326.544 72.3092C326.939 72.4664 327.299 72.7 327.603 72.9965L343.177 88.1064C343.64 88.5546 343.957 89.1306 344.09 89.7606C344.223 90.3905 344.165 91.0458 343.923 91.6424C343.681 92.239 343.267 92.7499 342.733 93.1096C342.199 93.4693 341.57 93.6615 340.926 93.6614V93.6614Z" fill="#6C63FF"/>
<path d="M328.585 182.036C327.95 182.035 327.329 181.848 326.799 181.497C326.269 181.146 325.855 180.646 325.607 180.061C325.36 179.476 325.29 178.83 325.407 178.206C325.524 177.581 325.822 177.005 326.265 176.549L341.839 160.51C342.437 159.896 343.254 159.544 344.111 159.531C344.969 159.519 345.796 159.848 346.411 160.445C347.026 161.042 347.379 161.859 347.392 162.717C347.405 163.574 347.077 164.401 346.48 165.017L330.906 181.055C330.604 181.366 330.244 181.613 329.845 181.781C329.447 181.949 329.018 182.036 328.585 182.036V182.036Z" fill="#6C63FF"/>
<path d="M454.707 185.27C454.275 185.27 453.848 185.184 453.45 185.017C453.053 184.849 452.693 184.603 452.393 184.294L433.585 165.022C433.287 164.718 433.053 164.358 432.895 163.964C432.736 163.57 432.657 163.148 432.662 162.723C432.667 162.298 432.756 161.878 432.923 161.487C433.09 161.097 433.333 160.743 433.637 160.446C433.941 160.149 434.301 159.915 434.696 159.758C435.091 159.6 435.512 159.522 435.937 159.527C436.362 159.533 436.782 159.622 437.172 159.79C437.563 159.958 437.916 160.201 438.213 160.505L457.021 179.778C457.465 180.233 457.766 180.809 457.884 181.434C458.003 182.059 457.934 182.706 457.687 183.292C457.44 183.878 457.025 184.379 456.495 184.73C455.965 185.082 455.343 185.27 454.707 185.27V185.27Z" fill="#6C63FF"/>
<path d="M388.756 217.608C387.898 217.608 387.075 217.268 386.469 216.661C385.862 216.055 385.522 215.232 385.522 214.375V177.185C385.522 176.76 385.605 176.34 385.768 175.947C385.93 175.555 386.169 175.199 386.469 174.898C386.769 174.598 387.126 174.36 387.518 174.197C387.91 174.035 388.331 173.951 388.756 173.951C389.18 173.951 389.601 174.035 389.993 174.197C390.386 174.36 390.742 174.598 391.042 174.898C391.343 175.199 391.581 175.555 391.743 175.947C391.906 176.34 391.99 176.76 391.99 177.185V214.375C391.989 215.232 391.649 216.055 391.042 216.661C390.436 217.268 389.613 217.608 388.756 217.608V217.608Z" fill="#6C63FF"/>
<path d="M627.927 632.155H269.844C192.593 632.155 129.744 568.248 129.744 489.697C129.744 411.146 192.593 347.24 269.844 347.24H295.319C309.334 318.664 330.931 294.488 357.751 277.351C384.964 259.952 416.586 250.702 448.886 250.692C538.478 250.692 613.154 321.144 620.104 411.605H627.927C687.785 411.605 736.484 461.074 736.484 521.88C736.484 582.685 687.785 632.155 627.927 632.155ZM269.844 353.24C195.901 353.24 135.744 414.454 135.744 489.697C135.744 564.94 195.901 626.155 269.844 626.155H627.927C684.477 626.155 730.484 579.377 730.484 521.88C730.484 464.382 684.477 417.605 627.927 417.605H614.482L614.31 414.788C608.904 326.136 536.241 256.692 448.886 256.692C385.982 256.692 327.503 293.921 299.903 351.536L299.087 353.24H269.844Z" fill="#3F3D56"/>
</g>
<defs>
<clipPath id="clip0">
<rect width="859.113" height="632.68" fill="white"/>
</clipPath>
</defs>
</svg>
